<svg xmlns="http://www.w3.org/2000/svg" width="11.969" height="17" viewBox="0 0 11.969 17">
  <defs>
    <style>
      .cls-1 {
        fill: #fff;
        fill-rule: evenodd;
      }
    </style>
  </defs>
  <path id="arrow" class="cls-1" d="M648.677,7017.29a1.069,1.069,0,0,1,0,1.52l-4.863,4.87a1.08,1.08,0,1,1-1.526-1.53l4.865-4.86A1.079,1.079,0,0,1,648.677,7017.29Zm-11.356,0a1.074,1.074,0,0,0,0,1.52l4.865,4.87a1.08,1.08,0,0,0,1.525-1.53l-4.864-4.86A1.082,1.082,0,0,0,637.321,7017.29ZM643,7007a1,1,0,0,1,1,1v13a1,1,0,0,1-2,0v-13A1,1,0,0,1,643,7007Z" transform="translate(-637.031 -7007)"/>
</svg>
