<svg xmlns="http://www.w3.org/2000/svg" xmlns:xlink="http://www.w3.org/1999/xlink" width="23" height="22" viewBox="0 0 23 22">
  <defs>
    <style>
      .cls-1 {
        fill: #2a2a2a;
        fill-rule: evenodd;
        filter: url(#filter);
      }
    </style>
    <filter id="filter" x="1441" y="257" width="23" height="22" filterUnits="userSpaceOnUse">
      <feFlood result="flood" flood-color="#9b9b9b"/>
      <feComposite result="composite" operator="in" in2="SourceGraphic"/>
      <feBlend result="blend" in2="SourceGraphic"/>
    </filter>
  </defs>
  <path id="icon" class="cls-1" d="M1452.95,278.051a1.188,1.188,0,0,0-.92,0l-1.5.735a2.14,2.14,0,0,1-2.81-.9l-0.79-1.482a1.167,1.167,0,0,0-.74-0.538l-1.65-.288a2.121,2.121,0,0,1-1.74-2.367l0.23-1.668a1.156,1.156,0,0,0-.28-0.871l-1.17-1.206a2.118,2.118,0,0,1,0-2.931l1.17-1.206a1.153,1.153,0,0,0,.28-0.871l-0.23-1.667a2.124,2.124,0,0,1,1.74-2.368l1.65-.288a1.156,1.156,0,0,0,.74-0.538l0.79-1.482a2.145,2.145,0,0,1,2.81-.9l1.5,0.734a1.188,1.188,0,0,0,.92,0l1.51-.734a2.142,2.142,0,0,1,2.81.9l0.79,1.482a1.16,1.16,0,0,0,.74.538l1.65,0.288a2.122,2.122,0,0,1,1.74,2.368l-0.24,1.667a1.163,1.163,0,0,0,.29.871l1.17,1.206a2.118,2.118,0,0,1,0,2.931l-1.17,1.206a1.163,1.163,0,0,0-.29.871l0.24,1.668a2.123,2.123,0,0,1-1.74,2.367l-1.65.288a1.16,1.16,0,0,0-.74.538l-0.79,1.482a2.146,2.146,0,0,1-2.81.9Zm2.5-1.116,0.79-1.482a3.231,3.231,0,0,1,2.2-1.593s1.72-.343,1.71-0.371l-0.23-1.667a3.18,3.18,0,0,1,.83-2.562s1.2-1.3,1.18-1.322l-1.18-1.2a3.18,3.18,0,0,1-.83-2.562s0.2-1.745.17-1.751l-1.65-.287a3.213,3.213,0,0,1-2.2-1.593s-0.85-1.519-.87-1.509l-1.51.734a3.233,3.233,0,0,1-2.73,0s-1.58-.728-1.59-0.707l-0.79,1.482a3.231,3.231,0,0,1-2.2,1.593l-1.65.287c-0.03.006,0.17,1.751,0.17,1.751a3.152,3.152,0,0,1-.84,2.562l-1.17,1.2c-0.02.022,1.17,1.322,1.17,1.322a3.154,3.154,0,0,1,.84,2.562l-0.24,1.667c0,0.029,1.72.371,1.72,0.371a3.234,3.234,0,0,1,2.2,1.593s0.85,1.52.87,1.509l1.51-.734a3.237,3.237,0,0,1,2.73,0S1455.44,276.956,1455.45,276.935Zm-5.31-5.26,6.17-6.1a1.01,1.01,0,0,0,0-1.437,1.044,1.044,0,0,0-1.46,0l-6.17,6.1a1.01,1.01,0,0,0,0,1.437A1.044,1.044,0,0,0,1450.14,271.675Zm-0.22-4.783a1.525,1.525,0,1,0-1.54-1.525A1.535,1.535,0,0,0,1449.92,266.892Zm5.14,5.081a1.525,1.525,0,1,0-1.54-1.524A1.534,1.534,0,0,0,1455.06,271.973Z" transform="translate(-1441 -257)"/>
</svg>
