<svg xmlns="http://www.w3.org/2000/svg" width="16" height="18" viewBox="0 0 16 18">
  <defs>
    <style>
      .cls-1 {
        fill: #fff;
        fill-rule: evenodd;
      }
    </style>
  </defs>
  <path id="icon" class="cls-1" d="M3330.43,254.909a4,4,0,1,1-7.41,2.452,2.52,2.52,0,0,1,2.07-1.363C3326.49,256,3329.21,256,3330.43,254.909Zm-7.9,6.082h-0.55a1.4,1.4,0,0,0-1.27.967l-1.68,6.077a0.721,0.721,0,0,0,.74.965l14.46-.014a0.722,0.722,0,0,0,.74-0.965l-1.7-6.065a1.382,1.382,0,0,0-1.26-.965h-0.52A6.01,6.01,0,1,0,3322.53,260.991Zm8.95,2-8.98,0-1.11,4h11.22Z" transform="translate(-3319 -251)"/>
</svg>
