<svg xmlns="http://www.w3.org/2000/svg" xmlns:xlink="http://www.w3.org/1999/xlink" width="18" height="18" viewBox="0 0 18 18">
  <defs>
    <style>
      .cls-1 {
        fill: #fff;
        fill-rule: evenodd;
        filter: url(#filter);
      }
    </style>
    <filter id="filter" x="1178" y="259" width="18" height="18" filterUnits="userSpaceOnUse">
      <feFlood result="flood" flood-color="#9b9b9b"/>
      <feComposite result="composite" operator="in" in2="SourceGraphic"/>
      <feBlend result="blend" in2="SourceGraphic"/>
    </filter>
  </defs>
  <path id="icon" class="cls-1" d="M1178,267.1l0.81,8.009a2.144,2.144,0,0,0,2.12,1.9h12.14a2.154,2.154,0,0,0,2.12-1.9L1196,267.1a1.9,1.9,0,0,0-1.92-2.1h-14.16a1.9,1.9,0,0,0-1.92,2.1h0Zm15.97-.087-0.8,7.9a0.141,0.141,0,0,1-.1.1h-12.14a0.121,0.121,0,0,1-.1-0.1l-0.8-7.9ZM1181.94,260a1.01,1.01,0,0,1,1.01-1h8.1a1,1,0,1,1,0,2h-8.1A1,1,0,0,1,1181.94,260Zm-2.02,3a1.01,1.01,0,0,1,1.01-1h12.14a1,1,0,1,1,0,2h-12.14A1,1,0,0,1,1179.92,263Z" transform="translate(-1178 -259)"/>
</svg>
