<svg xmlns="http://www.w3.org/2000/svg" width="5" height="9" viewBox="0 0 5 9">
  <defs>
    <style>
      .cls-1 {
        fill: #2c99ed;
        fill-rule: evenodd;
      }
    </style>
  </defs>
  <path id="Icon" class="cls-1" d="M700.938,3997.17a0.542,0.542,0,0,0-.779,0,0.561,0.561,0,0,0,0,.79l3.472,3.54-3.472,3.53a0.573,0.573,0,0,0,0,.8,0.554,0.554,0,0,0,.779,0l3.864-3.93a0.575,0.575,0,0,0,0-.8Zm0,0a0.542,0.542,0,0,0-.779,0,0.561,0.561,0,0,0,0,.79l3.472,3.54-3.472,3.53a0.573,0.573,0,0,0,0,.8,0.554,0.554,0,0,0,.779,0l3.864-3.93a0.575,0.575,0,0,0,0-.8Z" transform="translate(-700 -3997)"/>
</svg>
