<?xml version="1.0" encoding="UTF-8"?>
<svg width="48px" height="48px" viewBox="0 0 48 48" version="1.1" xmlns="http://www.w3.org/2000/svg" xmlns:xlink="http://www.w3.org/1999/xlink">
    <!-- Generator: Sketch 40.3 (33839) - http://www.bohemiancoding.com/sketch -->
    <title>theicons.co/svg/finance-24</title>
    <desc>Created with Sketch.</desc>
    <defs></defs>
    <g id="The-Icons" stroke="none" stroke-width="1" fill="none" fill-rule="evenodd">
        <g id="v-1.3" transform="translate(-768.000000, -1920.000000)" fill="#4D4D4D">
            <g id="Finance-&amp;-Commerce" transform="translate(96.000000, 1824.000000)">
                <g id="Shopping-Bag-2" transform="translate(672.000000, 96.000000)">
                    <path d="M14,12 L12.0042577,12 C9.78902751,12 7.8884036,13.7855424 7.75074247,15.9881206 L6.24925753,40.0118794 C6.11181422,42.2109725 7.7864638,44 9.99017859,44 L38.0098214,44 C40.2147544,44 41.8884036,42.2144576 41.7507425,40.0118794 L40.2492575,15.9881206 C40.1118142,13.7890275 38.2072328,12 35.9957423,12 L34,12 L34,11.9952753 C34,6.48051622 29.5200425,2 24,2 C18.4836492,2 14,6.47752559 14,11.9952753 L14,12 Z M18,12 L30,12 L30,11.9952753 C30,8.68954356 27.3107918,6 24,6 C20.6915654,6 18,8.68788931 18,11.9952753 L18,12 Z M34,16 L35.9957423,16 C36.094993,16 36.2513637,16.1466974 36.2570472,16.2376337 L37.741869,39.9947823 L10.2727082,39.9999469 L11.7429528,16.2376337 C11.7488615,16.1430943 11.9013855,16 12.0042577,16 L14,16 L14,20 C14,21.1045695 14.8954305,22 16,22 C17.1045695,22 18,21.1045695 18,20 L18,16 L30,16 L30,20 C30,21.1045695 30.8954305,22 32,22 C33.1045695,22 34,21.1045695 34,20 L34,16 Z M14,34 C14,32.8954305 14.8982124,32 15.9907951,32 L32.0092049,32 C33.1086907,32 34,32.8877296 34,34 C34,35.1045695 33.1017876,36 32.0092049,36 L15.9907951,36 C14.8913093,36 14,35.1122704 14,34 Z" id="Combined-Shape"></path>
                </g>
            </g>
        </g>
    </g>
</svg>